<?xml version="1.0" standalone="no"?>
<!DOCTYPE svg PUBLIC "-//W3C//DTD SVG 20010904//EN"
 "http://www.w3.org/TR/2001/REC-SVG-20010904/DTD/svg10.dtd">
<svg version="1.0" xmlns="http://www.w3.org/2000/svg"
 width="546.000000pt" height="457.000000pt" viewBox="0 0 546.000000 457.000000"
 preserveAspectRatio="xMidYMid meet">

<g transform="translate(0.000000,457.000000) scale(0.100000,-0.100000)"
fill="#000000" stroke="none">
<path d="M1643 3879 c-35 -22 -46 -37 -15 -20 22 13 58 40 52 41 -3 0 -20 -10
-37 -21z"/>
<path d="M3863 3881 c-12 -11 -78 -29 -160 -45 -149 -28 -293 -65 -306 -76 -5
-5 7 -13 27 -20 46 -15 48 -42 4 -63 -18 -8 -71 -25 -118 -36 -134 -34 -133
-45 5 -86 101 -30 131 -51 120 -84 -16 -50 -161 -96 -430 -136 -341 -50 -511
-86 -585 -123 -38 -19 -55 -34 -55 -47 0 -15 12 -21 71 -31 38 -6 80 -15 92
-18 28 -9 29 -42 2 -56 -12 -6 -114 -15 -228 -20 -223 -10 -293 -23 -437 -79
-271 -105 -503 -347 -573 -599 l-27 -97 -5 48 c-3 26 -9 47 -15 47 -6 0 -8
-17 -5 -38 3 -20 5 -84 5 -142 0 -97 -2 -110 -30 -165 -17 -33 -33 -58 -37
-55 -3 3 -18 -6 -32 -19 -29 -27 -32 -19 -12 30 7 19 16 43 20 54 6 16 9 17
16 5 13 -20 12 -13 -4 39 -12 43 -13 44 -20 18 -7 -30 -36 -37 -36 -9 -1 16
-1 16 -11 -1 -6 -10 -12 -55 -14 -100 -2 -45 -7 -90 -10 -99 -4 -10 -29 -31
-56 -48 -27 -16 -49 -34 -49 -40 0 -14 33 -12 49 3 8 7 7 0 -3 -21 -12 -23
-22 -32 -34 -28 -117 32 -193 32 -254 0 -39 -20 -53 -36 -77 -86 -10 -21 -21
-35 -26 -30 -5 4 -5 1 -1 -6 4 -7 -2 -50 -13 -96 -12 -47 -21 -107 -21 -135 0
-44 3 -53 23 -62 28 -13 117 -204 117 -253 0 -68 -12 -98 -46 -118 -24 -14
-34 -27 -34 -45 0 -15 -10 -33 -26 -45 -14 -11 -22 -24 -17 -29 5 -5 44 -14
88 -22 80 -13 80 -13 83 -46 2 -20 -3 -40 -12 -50 -25 -27 -31 -77 -11 -84 12
-5 15 -18 13 -54 -3 -42 0 -48 17 -51 11 -1 59 20 106 49 l86 51 6 101 c4 56
10 103 15 105 15 5 1 52 -20 63 -15 8 -17 17 -12 44 5 29 -4 49 -70 158 -42
69 -76 133 -76 141 0 19 165 297 182 307 6 4 63 10 127 14 64 4 133 9 155 10
53 5 106 55 58 55 -11 0 -26 8 -36 18 -15 18 -13 23 56 96 55 59 77 76 91 71
28 -12 21 -36 -10 -33 -28 3 -28 2 -28 -54 0 -32 3 -58 8 -58 4 0 7 9 7 20 0
24 19 59 40 77 36 30 120 3 120 -39 0 -14 5 -18 15 -14 9 3 18 -1 21 -9 4 -10
20 -15 50 -15 38 0 44 3 50 25 7 26 34 56 34 36 0 -6 5 -11 11 -11 5 0 9 8 7
18 -3 19 25 65 35 56 4 -4 13 -1 22 6 31 25 131 -13 119 -45 -3 -7 2 -15 10
-18 9 -4 13 -15 11 -27 -2 -13 1 -20 11 -20 8 0 12 5 9 11 -8 13 3 99 13 98 4
0 27 -25 52 -54 38 -46 50 -54 79 -55 20 0 47 -10 66 -24 21 -16 40 -23 53
-19 13 3 36 -3 56 -15 30 -18 47 -20 138 -16 56 3 118 7 136 10 32 5 32 6 31
57 -1 47 -16 120 -18 90 -2 -19 -41 -16 -41 3 0 11 -5 14 -16 10 -10 -4 -14
-2 -11 6 2 7 10 12 16 10 6 -1 11 7 11 19 0 13 5 19 13 16 15 -5 41 20 28 28
-5 3 -11 -1 -13 -7 -3 -7 -22 38 -42 100 -21 62 -36 115 -34 117 2 3 19 -40
38 -95 25 -74 37 -97 46 -89 9 7 -3 47 -48 162 -80 205 -81 207 -75 214 11 11
24 -7 42 -61 11 -31 23 -56 27 -56 4 0 7 -3 6 -7 -4 -16 25 -89 44 -109 11
-12 15 -23 10 -25 -6 -3 -4 -19 5 -40 10 -25 22 -38 39 -42 31 -5 30 3 -1 33
-14 13 -23 25 -21 28 3 2 17 -10 33 -27 27 -30 30 -31 86 -24 l59 8 -58 63
-57 63 -25 -23 -26 -23 22 29 23 29 -27 28 c-19 20 -22 29 -13 35 8 4 21 -3
34 -18 l22 -26 93 104 c50 57 95 104 98 104 3 0 -3 -10 -14 -22 -101 -114
-164 -190 -164 -196 0 -4 24 -32 53 -63 51 -55 52 -55 53 -28 1 29 47 99 65
99 18 0 49 -41 49 -65 0 -35 -26 -95 -42 -96 -7 -1 -20 0 -28 1 -12 2 -12 -2
3 -17 21 -24 22 -43 2 -43 -8 0 -15 -7 -15 -16 0 -9 5 -12 12 -8 7 5 9 2 6 -7
-8 -21 15 -50 32 -39 11 7 12 11 0 24 -17 22 -4 33 21 18 11 -7 24 -10 30 -6
6 3 22 3 35 0 25 -7 25 -7 9 -33 -16 -24 -16 -26 3 -46 20 -19 22 -19 46 -4
24 16 26 16 36 -3 6 -11 15 -20 20 -20 17 0 11 25 -11 49 -27 28 -41 88 -28
113 6 12 21 18 44 18 30 0 37 -5 54 -37 16 -30 20 -34 21 -16 0 13 -14 33 -36
52 -24 19 -35 35 -31 45 6 14 12 13 50 -8 50 -28 124 -46 112 -27 -4 7 -9 10
-12 8 -2 -3 -16 7 -30 21 -16 16 -28 22 -30 15 -6 -16 -33 -5 -33 13 0 8 -4
14 -9 14 -13 0 -4 72 10 80 6 4 9 12 5 18 -3 6 10 20 29 32 35 21 48 22 113 7
26 -7 29 5 6 28 -10 10 -20 12 -28 7 -6 -5 -28 -12 -48 -15 l-37 -6 62 59 c34
32 65 56 70 53 4 -2 7 -22 7 -44 0 -47 14 -79 35 -79 20 0 19 9 -5 66 -12 26
-19 55 -18 63 2 9 14 -10 27 -41 l23 -57 29 22 c23 16 34 19 46 11 14 -9 20
-4 35 25 24 46 24 46 -17 70 -41 24 -46 58 -15 86 25 23 25 45 1 76 -10 13
-34 53 -52 88 -19 35 -38 72 -44 82 -5 11 -13 19 -17 19 -4 0 -15 14 -24 31
-14 28 -14 33 -1 46 13 13 17 12 36 -8 11 -13 21 -31 21 -41 0 -13 8 -18 31
-18 39 0 69 16 69 38 0 9 -25 44 -56 77 -82 89 -95 138 -46 173 l27 20 -40 35
-39 34 24 15 c14 9 81 51 150 93 176 109 230 145 230 154 0 16 -14 21 -27 10
-15 -13 -37 1 -54 32 -13 26 -3 44 35 57 19 7 37 20 40 28 3 8 10 12 16 9 5
-3 10 -1 10 5 0 6 5 8 10 5 6 -3 13 1 16 9 3 8 15 18 27 22 11 3 30 15 41 25
11 11 26 19 33 19 7 0 13 5 13 10 0 6 4 9 9 8 5 -2 22 12 39 31 l30 35 -25 19
c-30 24 -28 61 5 65 30 5 52 -14 52 -44 0 -30 27 -32 64 -3 14 11 26 17 26 12
0 -10 20 19 20 29 0 22 -140 138 -210 173 -43 22 -46 22 -67 6z m-1962 -1213
c104 -48 182 -128 237 -240 39 -79 62 -160 62 -214 l0 -25 -26 20 c-15 12 -36
21 -48 21 -20 0 -169 29 -228 45 -17 4 -25 12 -21 21 7 19 -41 19 -57 -1 -7
-8 -9 -15 -4 -15 4 0 -3 -11 -15 -24 -16 -17 -37 -26 -69 -29 -26 -2 -58 -8
-71 -12 -31 -10 -20 12 13 25 17 7 18 9 3 9 -16 1 -16 3 -2 31 17 34 18 40 6
40 -5 0 -14 -13 -21 -30 -21 -50 -57 -84 -107 -100 -27 -9 -47 -21 -45 -28 1
-7 -2 -12 -8 -12 -11 0 -50 -40 -50 -51 0 -5 19 -2 42 7 22 8 43 12 45 10 10
-9 -65 -56 -81 -50 -11 4 -16 1 -16 -10 0 -8 -9 -20 -20 -26 -14 -7 -20 -7
-20 0 0 18 -17 10 -28 -14 -5 -13 -20 -26 -32 -29 -21 -5 -21 -5 -5 13 17 19
15 50 -3 50 -5 0 -15 -6 -22 -14 -6 -8 -18 -12 -26 -9 -8 3 -14 0 -14 -7 0 -6
5 -8 11 -4 7 4 10 2 8 -3 -5 -12 -77 -93 -83 -93 -2 0 7 21 20 48 60 119 214
458 214 471 0 11 -3 11 -15 1 -8 -7 -15 -16 -15 -20 0 -21 -134 -283 -137
-269 -5 21 49 181 93 278 63 138 133 212 241 257 49 21 70 24 138 21 66 -3 93
-10 156 -39z m989 -71 c13 -24 13 -28 -2 -43 -15 -15 -17 -14 -33 9 -18 28
-12 71 8 64 7 -2 19 -15 27 -30z m514 10 c24 -24 43 -94 29 -107 -4 -4 -25 -5
-46 -3 -30 4 -41 11 -48 32 -12 30 -4 87 14 94 22 9 28 7 51 -16z m-439 -77
c4 -6 -5 -10 -20 -10 -15 0 -24 4 -20 10 3 6 12 10 20 10 8 0 17 -4 20 -10z
m-495 -160 c8 -16 8 -20 -3 -20 -18 0 -39 24 -30 33 11 12 22 8 33 -13z m332
-27 c-61 -73 -131 -138 -139 -130 -4 4 18 33 49 65 31 31 67 69 80 84 12 15
29 28 36 28 8 0 -4 -21 -26 -47z m105 25 c-3 -8 -6 -5 -6 6 -1 11 2 17 5 13 3
-3 4 -12 1 -19z m457 -19 c-3 -5 -10 -7 -15 -3 -5 3 -7 10 -3 15 3 5 10 7 15
3 5 -3 7 -10 3 -15z m-744 -151 c0 -20 -23 -3 -74 53 -30 34 -53 67 -49 72 6
10 122 -109 123 -125z m710 124 c0 -4 -31 -39 -70 -77 -50 -50 -66 -72 -57
-78 8 -6 7 -7 -4 -4 -24 8 -95 -68 -91 -97 2 -13 -8 -40 -22 -60 -14 -20 -30
-53 -36 -72 l-12 -36 -32 31 -32 31 -22 -22 c-12 -12 -25 -19 -29 -15 -3 4 8
22 25 40 18 18 32 42 32 52 0 47 91 138 120 120 6 -4 18 -1 26 6 12 10 12 14
2 22 -10 7 -9 8 3 4 11 -4 44 23 100 79 79 79 99 95 99 76z m-844 -154 l29
-33 -32 29 c-18 17 -33 31 -33 33 0 8 8 1 36 -29z m-858 -87 c-14 -18 -29 -28
-39 -25 -11 3 -19 -3 -23 -20 -4 -18 -15 -26 -38 -31 -18 -4 -42 -9 -53 -12
-19 -5 -19 -4 1 17 21 21 151 99 167 100 5 0 -2 -13 -15 -29z m-502 -61 c-3
-15 -11 -43 -19 -61 l-14 -34 3 40 c1 22 3 52 3 67 1 21 5 26 17 21 11 -4 14
-14 10 -33z m1129 -18 c-3 -3 -16 5 -28 17 l-22 23 28 -17 c15 -10 25 -20 22
-23z m-795 -55 c0 -2 -10 -12 -21 -23 -22 -19 -22 -19 -10 4 10 18 31 31 31
19z m-96 -46 c-17 -29 -19 -29 -36 -14 -10 9 -18 20 -18 24 0 8 62 29 68 23 2
-1 -4 -16 -14 -33z m-204 4 c-7 -8 -20 -15 -28 -15 -13 0 -12 3 4 15 25 19 40
19 24 0z m129 -99 c-31 -41 -38 -45 -77 -46 -26 0 -41 -4 -37 -10 3 -5 18 -10
33 -10 l27 0 -35 -34 c-26 -25 -47 -36 -82 -41 -43 -6 -48 -4 -48 13 0 23 25
46 40 37 15 -9 30 3 24 20 -4 8 -10 12 -15 9 -21 -13 -5 13 48 78 71 88 88 95
127 58 l29 -29 -34 -45z m784 67 c12 -16 39 -47 61 -70 25 -28 33 -43 23 -43
-8 0 -30 19 -49 43 -45 54 -72 97 -63 97 4 0 17 -12 28 -27z m-89 -22 c16 -18
16 -19 -13 -23 -41 -6 -59 5 -42 26 18 21 34 20 55 -3z m-872 -27 c-7 -12 -11
-13 -17 -4 -4 7 -2 16 6 21 18 11 23 4 11 -17z m-27 -51 c-28 -47 -45 -67 -51
-61 -10 10 46 86 64 88 2 0 -4 -12 -13 -27z m42 -145 c-9 -7 -23 -22 -31 -33
-15 -19 -15 -19 -16 7 0 26 6 30 54 37 6 0 2 -5 -7 -11z"/>
<path d="M1744 2279 c-4 -8 -3 -9 4 -5 7 4 12 3 12 -3 0 -5 -6 -12 -12 -14 -8
-3 -6 -6 5 -6 9 -1 17 5 17 13 0 20 -17 29 -26 15z"/>
<path d="M1417 2176 c-4 -9 -13 -13 -21 -10 -19 7 -31 -15 -17 -29 9 -9 11 -8
6 6 -4 9 -3 17 3 17 6 0 12 -6 14 -13 2 -11 7 -11 20 2 10 10 14 22 9 30 -7
10 -9 9 -14 -3z"/>
<path d="M1350 2120 c-9 -6 -10 -10 -3 -10 6 0 15 5 18 10 8 12 4 12 -15 0z"/>
<path d="M1408 2113 c6 -2 18 -2 25 0 6 3 1 5 -13 5 -14 0 -19 -2 -12 -5z"/>
<path d="M1410 2070 c-8 -5 -11 -12 -7 -16 4 -4 13 -2 19 4 15 15 7 24 -12 12z"/>
<path d="M1370 2060 c0 -5 5 -10 10 -10 6 0 10 5 10 10 0 6 -4 10 -10 10 -5 0
-10 -4 -10 -10z"/>
<path d="M1246 1845 c-10 -7 -15 -19 -11 -25 10 -17 28 -7 32 18 3 26 4 26
-21 7z"/>
<path d="M1197 1834 c-4 -4 -7 -14 -7 -23 0 -11 3 -12 11 -4 6 6 10 16 7 23
-2 6 -7 8 -11 4z"/>
<path d="M1140 1689 c0 -5 5 -7 10 -4 6 3 10 8 10 11 0 2 -4 4 -10 4 -5 0 -10
-5 -10 -11z"/>
<path d="M1509 3788 c-177 -129 -333 -292 -461 -478 -36 -52 -68 -102 -73
-110 -17 -32 14 8 95 125 95 134 321 369 429 445 76 54 108 79 100 80 -3 0
-43 -28 -90 -62z"/>
<path d="M945 3150 c-9 -16 -13 -30 -11 -30 3 0 12 14 21 30 9 17 13 30 11 30
-3 0 -12 -13 -21 -30z"/>
<path d="M879 3029 c-22 -45 -39 -83 -37 -85 2 -2 23 35 46 81 23 47 40 85 37
85 -3 0 -23 -36 -46 -81z"/>
<path d="M4636 3019 c-62 -25 -138 -85 -194 -152 -46 -55 -123 -184 -143 -240
-17 -48 -25 -56 -123 -121 -146 -98 -265 -213 -382 -370 l-75 -100 53 -53 c29
-29 56 -53 60 -53 4 0 21 27 38 60 89 176 225 371 347 498 l70 73 21 -48 c55
-129 61 -282 17 -423 -30 -93 -103 -243 -115 -235 -4 3 -10 -1 -13 -8 -8 -21
53 -8 90 19 17 13 33 20 35 15 5 -13 68 -24 68 -12 0 6 -4 11 -10 11 -5 0 -7
7 -3 16 5 14 8 12 19 -7 16 -30 18 -19 3 15 -7 14 -16 23 -20 20 -9 -5 8 57
35 128 14 35 15 51 7 66 -8 16 -7 21 4 26 33 12 10 197 -35 286 -10 21 -35 58
-54 83 l-36 47 39 0 c38 0 110 -32 160 -71 36 -29 89 -106 101 -148 31 -107
33 -287 4 -367 -14 -39 47 29 81 91 48 85 52 109 23 129 -23 17 -23 17 -4 31
11 8 24 15 29 15 17 0 1 152 -23 213 -21 56 -23 58 -51 52 -28 -6 -40 7 -19
20 6 3 10 10 10 14 0 16 -120 45 -207 49 l-92 4 48 37 c97 74 121 96 121 113
0 10 5 15 13 12 20 -7 80 63 74 87 -4 16 -1 18 18 13 19 -5 30 4 64 52 l42 58
-23 17 -23 18 49 12 c32 8 43 14 34 20 -22 14 -80 9 -132 -12z"/>
<path d="M3778 2934 c-24 -7 -23 -16 10 -46 20 -19 32 -24 47 -18 11 5 28 9
38 9 14 1 16 -3 8 -18 -16 -29 18 -55 61 -46 32 6 32 5 13 -10 -20 -16 -20
-16 4 -36 23 -19 31 -19 81 -1 8 3 4 -4 -10 -16 l-25 -22 42 -38 c23 -21 61
-44 85 -51 24 -7 62 -24 85 -37 51 -30 53 -30 53 -1 0 33 -53 111 -125 183
-78 79 -202 142 -290 149 -33 2 -68 2 -77 -1z m334 -135 c46 -39 125 -146 115
-156 -10 -9 -74 17 -93 38 -16 17 -16 22 -4 30 12 9 10 10 -7 6 -14 -3 -29 3
-44 19 -22 23 -22 24 -4 44 18 20 18 20 -14 20 -29 0 -31 2 -21 20 6 11 7 20
3 20 -4 0 -19 10 -33 21 -24 20 -23 20 16 -1 22 -12 61 -39 86 -61z"/>
<path d="M786 2825 c-9 -26 -7 -32 5 -12 6 10 9 21 6 23 -2 3 -7 -2 -11 -11z"/>
<path d="M621 2184 c0 -11 3 -14 6 -6 3 7 2 16 -1 19 -3 4 -6 -2 -5 -13z"/>
<path d="M3522 2173 c2 -10 11 -19 20 -21 12 -2 15 2 11 17 -7 25 -36 28 -31
4z"/>
<path d="M3273 2093 c-7 -2 -13 -11 -13 -19 0 -11 9 -13 38 -8 20 3 46 7 56 8
11 2 22 9 24 16 4 10 0 11 -14 5 -34 -14 -87 -19 -80 -6 8 12 7 12 -11 4z"/>
<path d="M3535 2014 c-104 -79 -205 -150 -357 -253 -37 -25 -65 -47 -64 -48 2
-2 110 3 242 11 131 8 311 18 399 22 164 7 210 14 210 30 0 5 -72 79 -160 165
l-160 156 -110 -83z"/>
<path d="M3325 2044 c-14 -14 -14 -19 -2 -38 22 -32 64 -33 78 -2 9 20 9 29
-1 41 -16 20 -54 19 -75 -1z"/>
<path d="M3390 1965 c-19 -14 -30 -25 -25 -25 6 0 24 11 40 25 39 31 30 31
-15 0z"/>
<path d="M3303 1942 c-9 -6 -7 -11 6 -19 16 -10 18 -9 14 8 -3 10 -6 19 -7 19
0 0 -6 -4 -13 -8z"/>
<path d="M4358 1833 c-21 -5 -21 -4 -8 -37 5 -14 17 -26 26 -26 10 0 14 5 10
15 -3 8 0 15 6 15 6 0 5 6 -3 16 -12 14 -11 16 6 13 11 -3 21 -13 23 -24 6
-32 21 -41 18 -11 -4 40 -29 52 -78 39z"/>
<path d="M4228 1813 c7 -3 16 -2 19 1 4 3 -2 6 -13 5 -11 0 -14 -3 -6 -6z"/>
<path d="M4658 1813 c-19 -5 -22 -12 -12 -37 5 -12 20 -16 63 -16 54 0 57 2
68 30 l11 30 -56 -1 c-32 -1 -65 -3 -74 -6z"/>
<path d="M4168 1803 c7 -3 16 -2 19 1 4 3 -2 6 -13 5 -11 0 -14 -3 -6 -6z"/>
<path d="M4573 1780 c-34 -14 -28 -20 17 -20 31 0 38 3 34 15 -7 17 -19 18
-51 5z"/>
<path d="M1849 1759 c-8 -15 -18 -20 -36 -16 -13 2 -21 1 -16 -3 4 -4 23 -10
41 -13 31 -6 32 -5 30 23 -3 36 -4 36 -19 9z"/>
<path d="M2951 1743 c-23 -81 -9 -90 65 -47 37 22 43 29 32 41 -6 8 -20 12
-30 10 -12 -3 -23 2 -31 14 -17 28 -25 24 -36 -18z"/>
<path d="M2632 1713 c-2 -57 0 -63 18 -63 13 0 20 7 20 20 0 11 -6 20 -14 20
-10 0 -16 14 -19 43 -3 33 -4 29 -5 -20z"/>
<path d="M2770 1710 l0 -50 40 0 c37 0 40 2 40 28 0 57 -10 72 -46 72 l-34 0
0 -50z"/>
<path d="M1520 1723 c0 -20 5 -23 33 -22 21 1 25 3 12 6 -11 3 -25 13 -32 22
-11 14 -12 14 -13 -6z"/>
<path d="M3938 1733 c7 -3 16 -2 19 1 4 3 -2 6 -13 5 -11 0 -14 -3 -6 -6z"/>
<path d="M4205 1719 c-170 -10 -485 -27 -700 -39 -214 -11 -507 -27 -650 -35
-143 -8 -352 -19 -465 -25 -113 -6 -277 -15 -365 -20 -88 -6 -290 -17 -450
-25 -511 -26 -515 -27 -515 -42 0 -10 9 -13 33 -9 17 3 97 8 177 11 80 3 253
13 385 20 132 8 285 17 340 20 55 3 296 16 535 30 239 13 602 34 805 45 204
11 525 29 715 40 190 10 410 22 490 26 80 4 152 10 160 15 22 13 -145 9 -495
-12z"/>
<path d="M3813 1723 c9 -2 25 -2 35 0 9 3 1 5 -18 5 -19 0 -27 -2 -17 -5z"/>
<path d="M1743 1714 c-27 -12 -11 -25 25 -22 20 2 36 8 35 13 -3 11 -41 17
-60 9z"/>
<path d="M3653 1713 c9 -2 25 -2 35 0 9 3 1 5 -18 5 -19 0 -27 -2 -17 -5z"/>
<path d="M3488 1703 c7 -3 16 -2 19 1 4 3 -2 6 -13 5 -11 0 -14 -3 -6 -6z"/>
<path d="M611 1684 c0 -11 3 -14 6 -6 3 7 2 16 -1 19 -3 4 -6 -2 -5 -13z"/>
<path d="M3278 1693 c12 -2 30 -2 40 0 9 3 -1 5 -23 4 -22 0 -30 -2 -17 -4z"/>
<path d="M1583 1683 c9 -2 23 -2 30 0 6 3 -1 5 -18 5 -16 0 -22 -2 -12 -5z"/>
<path d="M2126 1675 c4 -9 19 -15 36 -15 26 0 29 2 18 15 -7 8 -23 15 -36 15
-17 0 -22 -4 -18 -15z"/>
<path d="M3118 1683 c12 -2 30 -2 40 0 9 3 -1 5 -23 4 -22 0 -30 -2 -17 -4z"/>
<path d="M1960 1664 c0 -9 5 -14 12 -12 18 6 21 28 4 28 -9 0 -16 -7 -16 -16z"/>
<path d="M1646 1663 c-4 -4 -26 -6 -48 -4 -38 3 -41 1 -28 -14 8 -10 23 -15
37 -12 l24 4 -22 -23 -22 -24 25 0 c13 0 28 3 31 7 4 4 32 5 62 4 56 -2 67 6
40 29 -8 7 -15 17 -15 23 0 7 4 7 12 -1 16 -16 43 -15 58 3 11 13 2 15 -67 15
-44 0 -83 -3 -87 -7z"/>
<path d="M2130 1649 c-41 -4 -124 -8 -185 -9 -60 -2 -96 -5 -80 -8 26 -4 28
-5 10 -12 -14 -6 0 -9 43 -9 35 -1 61 2 59 7 -3 4 46 5 108 3 113 -3 160 6
133 25 -7 5 -46 7 -88 3z"/>
<path d="M1429 1639 c-11 -7 -11 -9 -1 -9 7 0 10 -5 7 -11 -4 -6 -12 -8 -19
-6 -7 3 -23 -4 -37 -14 l-24 -19 65 0 c36 0 82 3 102 6 l37 7 -37 19 c-60 32
-78 37 -93 27z"/>
<path d="M2260 1640 c0 -5 14 -10 31 -10 17 0 28 4 24 10 -3 6 -17 10 -31 10
-13 0 -24 -4 -24 -10z"/>
<path d="M3648 1573 c7 -3 16 -2 19 1 4 3 -2 6 -13 5 -11 0 -14 -3 -6 -6z"/>
<path d="M3530 1554 l-55 -13 53 6 c29 3 65 9 80 13 l27 8 -25 0 c-14 0 -50
-6 -80 -14z"/>
<path d="M4591 1424 c-13 -14 -38 -33 -55 -42 l-31 -17 39 -3 c45 -4 49 0 71
51 18 43 10 47 -24 11z"/>
<path d="M2605 1378 c-207 -37 -282 -52 -365 -69 -52 -11 -95 -21 -96 -22 -1
-1 44 -22 102 -46 l104 -44 157 49 158 49 3 48 c2 26 -1 46 -5 46 -4 -1 -30
-5 -58 -11z"/>
<path d="M1970 1256 l-105 -22 144 -50 144 -51 79 26 c43 14 78 28 78 32 0 4
-10 11 -22 14 -13 4 -58 22 -101 41 -43 19 -86 34 -95 33 -9 -1 -64 -11 -122
-23z"/>
<path d="M2541 1229 c-84 -26 -158 -52 -163 -57 -13 -13 9 -55 25 -49 7 2 87
30 179 63 92 32 168 61 168 64 0 3 -12 10 -27 16 -23 8 -54 2 -182 -37z"/>
<path d="M1815 1225 c-5 -2 -35 -9 -66 -15 -53 -10 -56 -13 -65 -48 -9 -36 -8
-38 40 -84 59 -57 55 -76 -5 -24 -24 20 -51 36 -61 36 -10 0 -18 7 -18 16 0 8
-4 13 -10 9 -5 -3 -7 -12 -3 -20 3 -8 0 -15 -6 -15 -22 0 -10 -31 19 -48 16
-9 30 -25 30 -34 0 -21 25 -23 60 -4 16 9 32 11 47 5 16 -6 22 -5 20 4 -1 7
62 34 163 69 91 31 162 57 159 57 -3 1 -70 24 -149 51 -79 28 -143 50 -144 49
-1 0 -5 -2 -11 -4z"/>
<path d="M3987 1182 c-47 -17 -64 -28 -55 -33 35 -23 106 1 129 42 12 23 11
23 -74 -9z"/>
<path d="M2250 1138 c-36 -12 -66 -22 -68 -23 -4 -3 8 -26 26 -53 7 -10 24 -7
83 14 41 15 76 29 78 31 10 7 -24 53 -38 52 -9 -1 -45 -10 -81 -21z"/>
<path d="M1976 1045 c-157 -54 -200 -73 -141 -62 17 4 84 9 150 12 91 5 131
11 167 27 l47 21 -20 29 c-11 15 -26 28 -32 28 -7 0 -84 -25 -171 -55z"/>
<path d="M3144 1070 c15 -58 18 -110 7 -110 -6 0 -11 -6 -11 -14 0 -7 -7 -19
-15 -26 -10 -9 -15 -9 -15 -1 0 17 -19 9 -54 -22 -17 -15 -35 -26 -41 -24 -5
2 -21 -4 -34 -14 -13 -10 -27 -16 -32 -13 -5 3 -9 1 -9 -5 0 -9 -56 -27 -72
-23 -5 1 -8 -2 -8 -8 0 -6 -9 -6 -23 -1 -15 6 -26 4 -35 -5 -15 -16 -48 -19
-57 -5 -3 5 2 16 11 25 22 22 32 66 23 99 -4 16 -5 38 -2 50 15 62 15 74 -2
81 -9 3 -25 1 -36 -4 -13 -7 -25 -7 -38 0 -11 5 -39 9 -63 9 l-43 -2 40 -6
c49 -9 83 -29 91 -55 4 -11 15 -29 26 -40 10 -11 15 -22 9 -24 -5 -2 -8 -14
-5 -26 2 -13 -3 -37 -11 -52 -8 -16 -15 -24 -15 -19 0 6 -5 3 -10 -5 -7 -11
-10 -11 -10 -2 0 15 -28 2 -56 -25 -10 -10 -20 -18 -23 -19 -3 0 -14 -4 -24
-8 -9 -5 -26 -6 -37 -3 -12 3 -20 0 -20 -7 0 -17 111 -28 190 -19 38 4 60 2
64 -6 10 -16 23 -14 30 5 4 10 2 13 -7 8 -8 -5 -9 -4 -2 3 6 6 33 16 60 22
107 25 274 101 310 141 18 20 18 23 1 73 -10 29 -27 64 -38 77 l-20 25 6 -25z"/>
<path d="M2546 1058 c-20 -28 -21 -44 -1 -28 12 10 15 10 15 -1 0 -10 4 -9 16
3 17 16 13 48 -5 48 -5 0 -17 -10 -25 -22z"/>
<path d="M3535 1059 c-44 -9 -83 -18 -87 -18 -3 -1 -4 -10 -1 -21 6 -23 1 -24
-50 -7 -51 18 -87 10 -115 -24 -21 -25 -22 -31 -9 -43 8 -9 37 -16 69 -17 48
-2 63 3 128 41 75 43 171 111 154 109 -5 -1 -45 -10 -89 -20z"/>
<path d="M2608 973 c-17 -20 -7 -70 12 -58 14 9 12 45 -2 45 -8 0 -5 7 6 15
11 8 15 15 9 15 -5 0 -17 -8 -25 -17z"/>
<path d="M2490 951 c0 -15 9 -20 44 -22 24 -2 42 -1 39 4 -2 4 -12 7 -22 7
-10 0 -24 7 -31 15 -17 21 -30 19 -30 -4z"/>
<path d="M2150 951 c0 -5 7 -12 16 -15 24 -9 28 -7 14 9 -14 17 -30 20 -30 6z"/>
<path d="M2125 910 c-121 -10 -391 -28 -600 -41 -209 -13 -360 -25 -335 -27
25 -1 214 -6 420 -11 312 -7 379 -6 397 5 45 28 109 35 184 19 39 -8 77 -19
84 -25 8 -6 19 -10 27 -9 21 5 60 -21 54 -36 -8 -21 6 -25 88 -29 79 -3 86 4
39 38 -23 17 -27 17 -37 4 -10 -14 -76 -31 -74 -19 3 12 -26 61 -35 61 -6 0
-8 3 -5 6 4 3 20 -2 37 -10 32 -17 35 -16 45 29 4 17 9 38 12 48 7 21 0 21
-301 -3z"/>
<path d="M2460 895 c-17 -20 -5 -62 21 -76 18 -9 26 -7 48 9 30 22 38 47 21
67 -16 19 -74 19 -90 0z"/>
<path d="M2548 733 c7 -3 16 -2 19 1 4 3 -2 6 -13 5 -11 0 -14 -3 -6 -6z"/>
</g>
</svg>
