<?xml version="1.0" standalone="no"?>
<!DOCTYPE svg PUBLIC "-//W3C//DTD SVG 20010904//EN"
 "http://www.w3.org/TR/2001/REC-SVG-20010904/DTD/svg10.dtd">
<svg version="1.0" xmlns="http://www.w3.org/2000/svg"
 width="274.000000pt" height="184.000000pt" viewBox="0 0 274.000000 184.000000"
 preserveAspectRatio="xMidYMid meet">

<g transform="translate(0.000000,184.000000) scale(0.100000,-0.100000)"
fill="#000000" stroke="none">
<path d="M1171 1350 c-1 -8 4 -31 9 -50 6 -19 13 -53 16 -75 8 -65 23 -112 41
-126 14 -12 15 -11 8 11 -5 14 -8 34 -8 45 2 34 -20 125 -29 125 -5 0 -6 12
-2 28 4 19 3 23 -4 13 -7 -10 -12 -7 -20 15 -6 16 -11 22 -11 14z"/>
<path d="M1091 1328 c-11 -30 4 -191 19 -196 5 -2 10 -32 10 -68 0 -36 5 -75
11 -86 8 -15 8 -19 0 -13 -7 4 -18 1 -26 -5 -8 -6 -20 -8 -27 -4 -7 4 -10 4
-6 -1 4 -4 3 -15 -4 -22 -9 -11 -9 -16 3 -23 9 -6 5 -8 -14 -6 -15 1 -33 9
-40 16 -9 10 -9 11 1 6 6 -4 12 -2 12 3 0 6 -4 11 -10 11 -5 0 -9 3 -8 8 0 4
-2 16 -6 27 -5 11 -28 73 -53 137 -62 163 -98 202 -138 146 -14 -21 -24 -23
-94 -23 -72 0 -81 -2 -100 -25 -26 -32 -26 -52 -1 -75 15 -13 20 -31 20 -65 0
-34 7 -55 25 -80 22 -29 25 -31 25 -13 0 31 17 37 47 18 21 -14 27 -15 34 -4
7 11 13 9 31 -8 l22 -23 -24 -22 c-14 -13 -26 -22 -27 -20 -9 7 -33 0 -28 -8
11 -18 -15 -10 -35 10 -21 21 -45 18 -36 -5 2 -7 -4 -21 -14 -30 -17 -16 -19
-15 -29 4 -6 11 -11 24 -10 28 3 18 -3 30 -31 63 -36 41 -102 137 -112 163
-11 25 -36 32 -56 15 -24 -21 -92 -38 -124 -31 -18 3 -38 -1 -55 -13 -16 -10
-48 -21 -73 -24 -38 -4 -46 -9 -48 -29 -2 -14 2 -30 10 -35 17 -13 49 -79 58
-121 6 -25 4 -31 -11 -31 -10 0 -16 4 -13 8 6 9 -53 76 -80 89 -14 7 -11 2 9
-16 17 -15 23 -25 15 -22 -12 3 -15 -6 -17 -41 -2 -39 2 -49 32 -78 19 -19 35
-39 35 -46 0 -12 -45 -37 -92 -52 -21 -6 -25 -52 -5 -59 12 -5 79 31 85 45 5
10 57 38 72 38 19 0 10 -22 -36 -88 -53 -76 -51 -92 15 -106 68 -15 111 4 168
74 26 33 61 64 76 69 29 11 57 5 57 -10 0 -5 11 -7 25 -3 18 4 27 1 31 -10 4
-11 13 -14 29 -10 16 4 26 0 33 -11 8 -15 12 -15 30 -4 29 18 43 1 15 -18 -13
-9 -23 -21 -23 -27 0 -13 -41 -56 -53 -56 -4 0 -7 11 -7 25 0 16 -6 25 -16 25
-12 0 -15 6 -11 21 5 20 -3 28 -40 33 -20 4 -33 -10 -33 -37 0 -10 -8 -34 -17
-55 -33 -74 -24 -113 25 -106 89 12 121 11 126 -2 12 -31 45 -14 76 39 16 28
30 55 30 60 0 15 -31 6 -37 -10 -7 -21 -33 -53 -43 -53 -12 0 6 84 26 117 11
20 27 33 39 33 11 0 31 3 44 7 20 5 23 3 18 -10 -5 -14 -2 -14 40 0 41 14 46
14 61 0 14 -15 18 -15 44 1 27 16 29 15 49 -5 18 -17 25 -19 49 -10 24 9 32 8
48 -6 18 -16 19 -16 32 8 16 31 34 32 54 3 l15 -22 25 28 c22 27 26 28 60 16
34 -11 37 -14 31 -41 -8 -34 4 -38 25 -8 8 12 34 40 58 62 23 22 42 48 42 58
0 9 18 39 39 67 21 27 49 68 60 90 14 28 28 42 41 42 11 0 20 3 20 8 0 4 10
13 23 21 20 13 21 13 8 -3 -13 -15 -13 -19 0 -27 10 -6 10 -9 2 -9 -7 0 -13
-5 -13 -12 0 -6 7 -4 18 5 21 19 32 22 32 7 0 -13 -37 -50 -51 -50 -5 0 -8 -4
-5 -9 3 -5 -6 -17 -20 -27 -71 -51 -194 -168 -194 -185 0 -18 23 -20 43 -3 12
10 5 0 -16 -22 -20 -22 -34 -43 -31 -47 4 -4 -3 -7 -16 -7 -23 0 -23 0 5 26
20 18 25 28 17 36 -8 8 -13 7 -18 -5 -3 -9 -11 -17 -16 -17 -14 0 -101 -89
-132 -135 -14 -21 -26 -34 -26 -29 -1 5 -8 -3 -16 -18 -20 -38 -35 -36 -23 4
5 17 7 34 4 36 -2 2 -9 -16 -15 -39 -19 -76 -28 -88 -153 -210 -123 -118 -185
-199 -153 -199 8 0 19 6 23 14 8 14 99 109 128 135 30 25 27 3 -9 -63 -39 -72
-43 -86 -23 -86 14 0 32 29 100 160 26 52 63 110 80 128 47 48 172 142 190
142 11 0 18 -15 24 -53 8 -48 29 -70 27 -27 0 14 6 19 20 17 17 -2 20 3 18 25
-2 14 2 29 7 33 7 4 11 -6 11 -27 0 -58 12 -107 27 -113 17 -6 16 6 -13 149
l-18 89 34 28 c19 16 41 29 50 29 8 0 28 14 44 30 31 32 36 33 76 20 17 -5 19
-8 8 -9 -18 -1 -25 -31 -11 -45 11 -11 33 -79 33 -104 0 -30 36 -82 57 -82 13
0 14 8 9 48 -10 68 -37 155 -53 168 -7 6 -13 13 -13 16 0 2 42 25 93 50 113
56 175 68 345 68 104 0 132 3 132 13 0 8 -11 19 -25 25 -32 15 -48 15 -40 2 3
-5 2 -10 -4 -10 -5 0 -11 5 -13 12 -3 8 -27 11 -77 10 -40 -2 -81 0 -92 3 -34
11 -21 32 25 39 46 7 74 36 35 36 -33 0 -17 21 26 36 22 7 42 14 44 14 2 0 1
-13 -2 -29 -5 -21 -2 -29 7 -27 43 6 70 76 42 104 -15 16 -20 15 -65 -11 -27
-15 -61 -27 -76 -27 -15 0 -24 -4 -20 -10 3 -6 -1 -7 -9 -4 -20 8 -20 4 7 42
18 24 26 29 35 20 7 -7 12 -8 12 -2 0 20 -19 36 -44 37 -30 2 -29 2 -16 28 8
15 7 19 -5 19 -8 0 -15 -3 -15 -7 -1 -14 -52 -46 -87 -53 -28 -7 -33 -5 -29 6
4 10 -2 14 -19 14 -25 0 -46 -26 -38 -47 2 -6 -5 -17 -16 -23 -18 -9 -21 -8
-21 9 0 11 3 21 8 24 4 2 1 2 -6 0 -9 -2 -11 3 -7 17 5 14 2 18 -8 15 -8 -4
-12 -16 -9 -34 3 -22 -1 -29 -18 -34 -16 -4 -25 2 -38 23 -15 24 -21 27 -37
17 -27 -15 -67 -18 -59 -5 10 16 -17 27 -37 15 -28 -17 -34 -1 -32 81 1 56 -1
71 -7 54 -13 -31 -33 -17 -26 17 3 14 -6 2 -19 -26 -14 -29 -27 -64 -29 -78
-7 -37 -13 -44 -52 -51 -26 -5 -34 -10 -29 -22 3 -8 -2 -23 -11 -33 -19 -21
-49 -26 -38 -6 6 10 4 10 -7 0 -20 -19 -27 -16 -21 12 2 14 11 25 19 25 8 0
11 -5 7 -12 -4 -7 -3 -8 5 -4 6 4 9 12 6 17 -4 5 1 9 9 9 22 0 20 13 -4 35
-19 17 -21 17 -33 1 -7 -9 -21 -18 -32 -18 -14 -1 -20 -9 -20 -24 0 -19 3 -21
20 -11 19 10 19 9 5 -9 -33 -42 -52 -45 -44 -5 3 16 1 38 -5 50 -8 15 -9 21
-1 21 6 0 8 5 5 10 -4 6 -10 8 -14 6 -4 -3 -13 43 -20 102 -21 181 -26 205
-38 209 -7 3 -17 -6 -22 -19z m-281 -137 c0 -10 7 -32 15 -47 8 -16 15 -38 15
-50 0 -11 9 -29 19 -38 11 -10 22 -28 25 -41 8 -32 35 -40 45 -13 8 22 8 22
26 -5 9 -15 15 -33 12 -41 -3 -7 0 -19 6 -25 8 -8 8 -11 0 -11 -7 0 -15 5 -18
10 -4 6 -22 9 -41 7 -19 -3 -34 0 -34 4 0 5 -5 9 -10 9 -6 0 -3 -11 6 -25 16
-24 12 -45 -8 -45 -5 0 -8 6 -5 14 3 8 -2 22 -12 32 -24 26 -31 50 -19 62 6 6
2 26 -13 58 -61 136 -62 137 -43 151 25 18 34 16 34 -6z m667 -113 c-3 -8 -6
-5 -6 6 -1 11 2 17 5 13 3 -3 4 -12 1 -19z m-7 -38 c0 -10 -9 -24 -20 -30 -19
-10 -19 -10 -2 20 20 35 22 36 22 10z m-1226 -67 c48 -56 50 -59 11 -20 -27
27 -51 44 -58 41 -7 -4 -9 -3 -4 1 4 5 0 17 -10 27 -9 10 -12 18 -6 18 5 0 36
-30 67 -67z m131 37 c17 -11 26 -20 20 -20 -5 0 -23 9 -40 20 -16 11 -25 20
-20 20 6 0 24 -9 40 -20z m1489 -32 c-5 -8 -2 -9 9 -5 10 3 17 2 17 -2 0 -5
-6 -11 -12 -14 -21 -7 0 -20 32 -20 20 0 26 -3 18 -9 -20 -12 -44 -9 -58 7 -7
8 -17 12 -24 8 -6 -4 -5 1 3 10 12 15 10 17 -15 18 l-29 1 30 8 c17 4 31 8 33
9 2 0 0 -4 -4 -11z m-1413 -15 c13 -17 13 -17 -6 -3 -11 8 -22 16 -24 17 -2 2
0 3 6 3 6 0 17 -8 24 -17z m716 -45 c-3 -8 -6 -5 -6 6 -1 11 2 17 5 13 3 -3 4
-12 1 -19z m-573 -17 c3 -5 -1 -14 -9 -21 -12 -10 -18 -8 -34 11 -13 16 -16
26 -8 31 11 7 42 -5 51 -21z m316 25 c0 -3 -4 -8 -10 -11 -5 -3 -10 -1 -10 4
0 6 5 11 10 11 6 0 10 -2 10 -4z m-95 -16 c3 -5 1 -10 -4 -10 -6 0 -11 5 -11
10 0 6 2 10 4 10 3 0 8 -4 11 -10z m-295 -11 c13 -9 12 -10 -2 -5 -10 3 -18 1
-18 -4 0 -6 5 -10 11 -10 5 0 7 -5 4 -10 -10 -16 -35 8 -28 26 6 17 13 17 33
3z m744 -6 c-1 -7 -2 -27 -2 -43 -2 -26 -5 -29 -18 -22 -9 5 -26 7 -37 4 -17
-4 -18 -1 -12 29 4 19 13 37 19 42 16 11 51 4 50 -10z m66 -11 c-5 -9 -12 -30
-17 -47 -7 -29 -8 -28 -11 14 -2 28 1 47 9 52 19 11 30 1 19 -19z m-992 -10
c-5 -27 -28 -26 -26 1 1 16 7 23 16 20 7 -3 12 -12 10 -21z m738 15 c9 3 14
-2 14 -17 0 -18 -3 -20 -13 -11 -18 14 -28 3 -21 -24 4 -15 0 -24 -10 -28 -12
-5 -16 0 -16 24 0 34 21 81 27 62 3 -7 11 -9 19 -6z m-792 -21 c-3 -9 -10 -16
-15 -16 -5 0 -4 9 3 20 14 22 21 20 12 -4z m106 10 c0 -8 -4 -17 -9 -20 -10
-7 -23 19 -14 28 11 11 23 6 23 -8z m610 -27 c0 -5 -4 -9 -10 -9 -5 0 -10 7
-10 16 0 8 5 12 10 9 6 -3 10 -10 10 -16z m130 -11 c0 -16 -3 -19 -11 -11 -6
6 -8 16 -5 22 11 17 16 13 16 -11z m-246 -33 c3 -8 1 -15 -4 -15 -6 0 -10 7
-10 15 0 8 2 15 4 15 2 0 6 -7 10 -15z m-224 -11 c0 -2 -7 -4 -15 -4 -8 0 -15
4 -15 10 0 5 7 7 15 4 8 -4 15 -8 15 -10z m904 -22 c2 -4 -4 -8 -14 -8 -10 0
-16 4 -14 8 3 4 9 8 14 8 5 0 11 -4 14 -8z m36 -35 c0 -4 -96 -77 -102 -77
-10 0 -5 35 6 42 17 12 28 9 20 -4 -5 -7 8 -1 27 14 30 24 49 34 49 25z
m-1313 -41 c-3 -8 -15 -20 -26 -26 -19 -10 -21 -8 -21 19 0 20 6 31 18 34 22
5 36 -8 29 -27z m36 -18 c-13 -12 -25 -19 -29 -15 -10 10 16 37 34 37 13 0 12
-4 -5 -22z"/>
<path d="M560 904 c8 -10 15 -20 16 -22 1 -2 4 1 7 5 3 5 -4 15 -16 23 -21 12
-21 12 -7 -6z"/>
<path d="M1491 1174 c0 -11 3 -14 6 -6 3 7 2 16 -1 19 -3 4 -6 -2 -5 -13z"/>
<path d="M2068 1081 c11 -6 10 -11 -3 -25 -9 -9 -21 -16 -27 -16 -6 0 -8 -3
-5 -7 4 -3 1 -13 -5 -21 -10 -12 -9 -14 7 -11 11 3 27 20 36 39 18 36 16 50
-4 50 -8 0 -8 -3 1 -9z"/>
<path d="M1040 951 c0 -6 5 -13 10 -16 6 -3 10 1 10 9 0 9 -4 16 -10 16 -5 0
-10 -4 -10 -9z"/>
<path d="M640 910 c0 -13 18 -22 24 -11 3 5 -1 11 -9 15 -8 3 -15 1 -15 -4z"/>
<path d="M2213 830 c-20 -46 -20 -50 -4 -50 24 0 46 45 42 88 -2 25 -16 10
-38 -38z"/>
<path d="M2109 823 c6 -12 16 -25 21 -28 17 -11 11 5 -11 28 l-21 22 11 -22z"/>
<path d="M30 820 c-13 -8 -12 -10 3 -10 9 0 17 5 17 10 0 12 -1 12 -20 0z"/>
<path d="M1848 703 c7 -3 16 -2 19 1 4 3 -2 6 -13 5 -11 0 -14 -3 -6 -6z"/>
<path d="M833 517 c-19 -21 -66 -137 -59 -145 6 -5 47 70 66 120 10 26 17 48
17 48 -1 0 -12 -11 -24 -23z"/>
<path d="M1580 502 c12 -18 24 -31 27 -28 3 2 -7 17 -22 33 l-28 28 23 -33z"/>
<path d="M1011 469 c-5 -13 -6 -28 -3 -34 3 -5 9 4 14 20 9 36 2 46 -11 14z"/>
<path d="M902 416 c-7 -17 -7 -27 1 -35 8 -8 8 -11 -1 -11 -7 0 -12 -5 -12
-12 0 -28 23 13 26 46 4 42 1 44 -14 12z"/>
<path d="M986 427 c3 -10 9 -15 12 -12 3 3 0 11 -7 18 -10 9 -11 8 -5 -6z"/>
</g>
</svg>
