<?xml version="1.0" standalone="no"?>
<!DOCTYPE svg PUBLIC "-//W3C//DTD SVG 20010904//EN"
 "http://www.w3.org/TR/2001/REC-SVG-20010904/DTD/svg10.dtd">
<svg version="1.0" xmlns="http://www.w3.org/2000/svg"
 width="299.000000pt" height="168.000000pt" viewBox="0 0 299.000000 168.000000"
 preserveAspectRatio="xMidYMid meet">

<g transform="translate(0.000000,168.000000) scale(0.100000,-0.100000)"
fill="#000000" stroke="none">
<path d="M1696 1368 c-9 -12 -16 -29 -16 -36 0 -12 3 -12 18 -1 16 13 16 13 0
-7 -10 -11 -18 -30 -18 -42 0 -20 4 -22 42 -17 23 3 44 7 46 10 5 5 -22 9 -44
6 -7 -1 -9 18 -6 54 5 60 1 66 -22 33z"/>
<path d="M1855 1356 c-15 -11 -17 -22 -12 -62 3 -27 3 -43 0 -36 -7 19 -47 16
-39 -4 3 -9 6 -18 6 -20 0 -2 10 -4 23 -4 20 -1 20 -2 5 -11 -10 -5 -18 -17
-18 -24 0 -8 -3 -14 -7 -13 -15 3 -43 -14 -43 -27 0 -7 -7 -18 -15 -25 -10 -9
-15 -9 -15 -1 0 6 5 11 10 11 6 0 10 8 10 19 0 15 -6 18 -35 14 -20 -2 -35 1
-35 7 0 7 -6 8 -19 0 -26 -14 -31 -13 -25 5 4 8 1 15 -5 15 -6 0 -11 -5 -11
-11 0 -5 -4 -8 -9 -5 -5 3 -7 16 -4 27 6 20 3 21 -22 15 -32 -8 -46 -21 -74
-67 -22 -35 -28 -64 -12 -55 12 8 22 -20 15 -41 -5 -15 -4 -16 5 -3 9 13 11
13 11 1 0 -11 4 -9 15 5 11 13 13 14 9 3 -3 -10 2 -19 12 -23 14 -5 15 -2 9
21 -9 37 3 24 14 -15 8 -26 7 -30 -7 -25 -10 3 -22 10 -29 15 -7 6 -14 4 -18
-3 -4 -6 -4 -14 1 -18 6 -3 4 -25 -2 -51 -7 -25 -13 -39 -13 -32 -1 7 -5 10
-11 7 -5 -3 -10 1 -10 10 0 9 5 13 11 9 8 -4 8 0 0 15 -7 11 -14 21 -17 21 -3
0 -2 -4 1 -10 6 -9 -8 -14 -28 -11 -5 1 -6 -3 -2 -9 3 -5 1 -10 -4 -10 -6 0
-10 -3 -9 -7 2 -12 -20 -60 -30 -67 -6 -3 -9 -14 -7 -24 2 -9 4 -19 4 -22 1
-3 10 -6 21 -7 16 -1 18 2 10 22 -5 13 -6 26 -2 29 7 4 11 -10 14 -52 1 -7 8
-10 15 -8 8 3 11 1 8 -5 -4 -5 -15 -7 -26 -4 -17 6 -18 4 -8 -18 6 -13 18 -24
26 -23 9 0 17 -7 18 -17 2 -9 -1 -15 -6 -11 -5 3 -7 10 -4 15 4 5 -3 8 -14 6
-28 -4 -39 -17 -15 -17 10 0 15 -4 9 -8 -16 -11 -16 -30 0 -36 9 -3 15 0 15 8
0 8 9 16 20 19 13 3 18 1 13 -6 -4 -6 2 -8 15 -5 12 4 22 2 22 -2 0 -5 18 -1
41 8 31 12 45 13 58 5 10 -6 23 -8 30 -3 21 12 -50 21 -89 10 -32 -9 -33 -8
-16 5 11 8 27 15 37 15 9 0 32 3 50 6 19 4 31 3 27 -1 -7 -7 28 -45 41 -45 3
0 14 7 25 15 16 12 20 12 33 -1 9 -8 18 -12 22 -8 3 4 0 9 -6 11 -7 3 -13 10
-13 15 0 6 3 9 6 5 4 -3 21 1 38 9 28 14 29 14 12 -1 -18 -13 -15 -20 7 -16 4
0 7 -6 7 -15 0 -14 3 -14 15 -4 13 11 14 10 9 -4 -4 -11 -1 -16 11 -16 9 0 13
-4 10 -10 -3 -6 1 -7 9 -4 9 3 16 1 16 -4 0 -6 -8 -13 -17 -15 -17 -4 -17 -5
0 -6 9 0 17 -7 17 -15 0 -11 -9 -13 -32 -10 -23 2 -37 -2 -50 -16 -18 -19 -18
-20 1 -20 14 0 19 5 15 15 -6 15 7 21 19 9 12 -13 -6 -34 -30 -34 -22 0 -23
-1 -9 -16 15 -14 15 -17 0 -31 -8 -9 -13 -22 -10 -30 3 -8 1 -11 -4 -8 -11 7
-9 33 3 53 5 6 4 12 -2 12 -6 0 -14 -15 -19 -32 -8 -30 -9 -31 -16 -11 -6 18
-11 20 -36 13 -20 -6 -30 -5 -34 5 -2 7 4 15 16 18 20 6 17 27 -5 27 -7 0 -6
-4 3 -10 17 -11 1 -13 -24 -4 -9 3 -13 11 -9 18 4 6 -5 3 -21 -7 -15 -10 -30
-16 -34 -13 -3 3 0 6 6 6 7 0 12 5 12 10 0 12 -22 9 -32 -5 -5 -6 -11 -5 -17
4 -5 7 -14 10 -20 7 -6 -4 -11 -2 -11 3 0 6 -8 11 -17 11 -15 0 -16 -2 -3 -10
8 -5 10 -10 4 -10 -16 0 -35 25 -26 35 4 5 1 5 -7 0 -8 -4 -17 -2 -22 6 -4 7
-18 14 -31 14 -13 1 -29 5 -36 9 -17 10 -92 16 -92 8 0 -4 -18 -6 -40 -4 -24
3 -40 0 -40 -7 0 -7 -7 -8 -24 0 -18 8 -30 7 -54 -5 -23 -12 -32 -13 -35 -3
-4 8 -8 9 -14 2 -4 -6 -21 -11 -38 -12 -41 -2 -138 -24 -149 -35 -6 -4 -11
-14 -12 -23 -2 -13 2 -13 33 0 20 8 46 15 59 15 13 0 24 5 24 10 0 14 86 12
145 -3 100 -26 279 -162 306 -234 5 -14 10 -50 11 -79 1 -46 3 -51 14 -36 8 9
14 22 14 28 0 6 6 17 14 23 7 6 16 29 20 51 3 22 12 40 19 40 8 0 9 3 1 8 -6
4 -13 15 -17 25 -4 11 -17 17 -38 17 -23 0 -30 4 -26 14 3 8 1 16 -6 19 -7 2
-12 15 -12 30 -1 21 2 24 13 14 40 -32 56 -34 80 -5 25 30 89 65 99 54 3 -3
-1 -6 -10 -6 -25 0 -30 -18 -10 -45 19 -26 53 -34 53 -12 1 7 7 4 15 -7 8 -11
21 -16 30 -13 8 4 15 2 15 -4 0 -6 5 -7 12 -3 7 5 8 3 3 -5 -9 -15 14 -63 27
-55 4 3 8 1 8 -5 0 -26 57 -40 134 -35 81 6 116 -2 169 -39 40 -27 78 -92 86
-146 7 -44 7 -45 20 -23 7 13 14 37 16 52 4 30 32 91 46 100 4 3 10 19 13 35
5 23 4 25 -3 10 -8 -19 -9 -18 -20 8 -15 38 -14 47 5 47 11 0 7 9 -15 29 -17
16 -35 41 -41 55 -5 15 -14 25 -19 22 -5 -4 -15 10 -21 30 -10 31 -15 35 -36
30 -16 -4 -24 -2 -24 7 0 9 -9 12 -30 9 -36 -5 -122 17 -114 29 3 5 -1 9 -8 9
-11 0 -11 2 0 8 21 14 -2 62 -30 63 -17 1 -19 2 -5 6 9 2 17 8 17 13 0 5 -8 6
-17 3 -16 -6 -16 -5 -4 10 7 9 22 17 32 17 11 0 19 7 19 16 0 9 5 13 13 9 6
-4 4 0 -5 8 -10 8 -18 19 -18 26 0 6 -10 11 -22 11 -13 0 -30 5 -38 10 -11 7
-5 8 19 3 31 -6 34 -4 29 15 -6 23 2 28 18 12 17 -17 35 4 26 30 -16 42 4 90
24 58 5 -7 3 -8 -7 -3 -8 5 -5 -2 5 -14 20 -22 20 -22 0 -15 -18 7 -18 7 -1
-13 20 -23 22 -44 5 -61 -9 -9 -9 -12 0 -12 7 0 12 -9 12 -19 0 -15 -5 -18
-22 -14 -22 4 -22 4 -3 -8 11 -7 27 -20 35 -29 15 -16 45 -32 65 -34 6 -1 9
-10 8 -20 -1 -14 4 -17 20 -12 22 5 22 5 2 -11 -20 -15 -20 -15 2 -10 15 3 20
1 17 -8 -3 -7 5 -21 18 -30 15 -12 17 -15 5 -11 -17 5 -17 5 0 -18 10 -13 21
-22 25 -19 4 2 15 -12 25 -31 10 -21 27 -39 45 -45 29 -10 34 -20 19 -36 -13
-13 8 -40 37 -47 26 -7 28 -2 5 20 -15 15 -13 18 22 33 24 11 45 30 56 51 21
39 55 78 72 79 24 3 42 -3 49 -16 4 -7 25 -16 45 -19 21 -4 47 -10 58 -12 11
-3 -11 15 -50 40 -38 26 -77 54 -85 64 -27 32 -80 64 -96 58 -8 -3 -12 -2 -9
4 3 6 -5 10 -19 10 -14 0 -38 5 -53 11 -66 27 -98 42 -103 48 -3 4 -23 11 -44
16 -22 6 -41 15 -43 22 -3 9 4 9 29 1 61 -19 143 -49 160 -59 10 -5 25 -9 34
-9 16 0 16 2 -1 20 -27 30 -152 87 -229 105 -38 8 -71 16 -72 18 -2 1 -10 38
-19 82 -9 48 -31 110 -54 155 -35 69 -41 75 -69 75 -18 0 -39 8 -49 19 -10 10
-12 16 -6 12 8 -5 17 3 25 20 11 24 10 29 -15 50 -32 27 -46 29 -72 10z m105
-196 c0 -5 6 -10 13 -10 8 0 19 -12 26 -27 10 -24 10 -26 -2 -10 -31 39 -61
11 -74 -71 -5 -30 -18 -36 -18 -9 0 7 -6 13 -12 13 -7 1 -17 2 -23 3 -5 0 -10
8 -10 17 0 10 6 14 14 11 16 -6 30 19 19 36 -3 5 7 21 23 34 31 25 44 29 44
13z m-270 -15 c0 -8 -4 -15 -10 -15 -5 0 -7 7 -4 15 4 8 8 15 10 15 2 0 4 -7
4 -15z m121 -20 c13 5 19 2 19 -10 0 -9 -4 -13 -10 -10 -11 7 -13 -9 -4 -43 4
-14 12 -21 20 -18 8 3 11 0 8 -9 -4 -11 1 -13 22 -9 16 3 26 2 22 -1 -3 -4
-14 -8 -24 -9 -11 -2 -18 -13 -20 -32 -2 -16 -6 -40 -9 -52 -4 -15 -2 -21 5
-17 5 3 10 1 10 -4 0 -6 -7 -11 -15 -11 -13 0 -15 7 -9 35 5 28 3 35 -10 35
-9 0 -16 7 -16 15 0 8 -4 15 -10 15 -5 0 -10 -4 -10 -9 0 -6 5 -13 10 -16 6
-3 10 -16 9 -28 0 -12 -3 -17 -5 -10 -3 7 -12 9 -21 6 -10 -4 -14 -2 -10 4 4
6 0 13 -8 17 -8 3 -15 1 -15 -5 0 -6 -4 -8 -9 -5 -5 3 -8 -2 -7 -11 0 -9 -5
-18 -11 -20 -7 -3 -13 3 -13 13 0 9 -8 23 -17 30 -16 12 -16 12 6 7 27 -7 46
14 29 34 -7 9 -7 13 1 13 7 0 11 6 10 13 -2 6 1 27 5 45 5 22 13 32 27 32 10
0 18 3 18 8 -1 4 0 14 1 22 2 11 4 10 7 -3 3 -12 10 -16 24 -12z m-251 -26 c0
-6 -4 -7 -10 -4 -5 3 -10 11 -10 16 0 6 5 7 10 4 6 -3 10 -11 10 -16z m40 -95
c0 -2 -7 -4 -15 -4 -8 0 -15 4 -15 10 0 5 7 7 15 4 8 -4 15 -8 15 -10z m350
-14 c8 -5 11 -10 5 -10 -5 0 -17 5 -25 10 -8 5 -10 10 -5 10 6 0 17 -5 25 -10z
m-340 -10 c18 -12 2 -12 -25 0 -13 6 -15 9 -5 9 8 0 22 -4 30 -9z m268 -15
c-3 -3 -9 2 -12 12 -6 14 -5 15 5 6 7 -7 10 -15 7 -18z m-298 1 c0 -3 -4 -8
-10 -11 -5 -3 -10 -1 -10 4 0 6 5 11 10 11 6 0 10 -2 10 -4z m380 -10 c0 -11
-19 -15 -25 -6 -3 5 1 10 9 10 9 0 16 -2 16 -4z m37 -2 c-3 -3 -12 -4 -19 -1
-8 3 -5 6 6 6 11 1 17 -2 13 -5z m-497 -24 c0 -11 -4 -20 -10 -20 -5 0 -10 9
-10 20 0 11 5 20 10 20 6 0 10 -9 10 -20z m73 -9 c3 -14 1 -18 -9 -14 -8 3
-14 11 -14 19 0 21 17 17 23 -5z m427 -16 c-25 -26 -40 -32 -40 -15 0 6 7 10
15 10 21 0 19 18 -2 23 -10 3 -3 5 16 6 l34 1 -23 -25z m-223 9 c-3 -3 -12 -4
-19 -1 -8 3 -5 6 6 6 11 1 17 -2 13 -5z m16 -34 c3 -11 1 -18 -4 -14 -5 3 -9
12 -9 20 0 20 7 17 13 -6z m67 -5 c0 -7 -4 -17 -10 -20 -6 -4 -7 1 -3 11 5 13
3 16 -10 11 -9 -3 -18 -3 -21 1 -2 4 6 9 20 10 15 1 24 -3 24 -13z m50 -10 c0
-8 -7 -15 -15 -15 -8 0 -14 -3 -14 -7 3 -20 -2 -27 -10 -14 -6 9 -3 20 7 32
20 23 32 24 32 4z m-225 -25 c-3 -5 -1 -10 6 -10 7 0 4 -7 -7 -16 -10 -8 -14
-13 -9 -11 6 3 18 -1 28 -8 16 -12 14 -13 -17 -12 -20 1 -32 3 -28 6 12 9 11
41 -2 42 -6 0 -2 4 9 9 27 11 27 11 20 0z m58 -7 c-7 -2 -19 -2 -25 0 -7 3 -2
5 12 5 14 0 19 -2 13 -5z m47 -23 c0 -5 -2 -10 -4 -10 -3 0 -8 5 -11 10 -3 6
-1 10 4 10 6 0 11 -4 11 -10z m-145 -10 c-3 -5 -11 -10 -16 -10 -6 0 -7 5 -4
10 3 6 11 10 16 10 6 0 7 -4 4 -10z m122 -16 c-3 -3 -12 -4 -19 -1 -8 3 -5 6
6 6 11 1 17 -2 13 -5z m232 3 c-2 -1 -13 -10 -24 -19 -15 -12 -24 -14 -35 -7
-13 9 -12 10 2 6 9 -3 22 1 28 9 7 8 17 14 23 14 6 0 8 -1 6 -3z m-84 -25 c-3
-3 -11 0 -18 7 -9 10 -8 11 6 5 10 -3 15 -9 12 -12z m-173 -4 c-9 -9 -15 -9
-24 0 -9 9 -7 12 12 12 19 0 21 -3 12 -12z m248 -78 c0 -5 -5 -10 -11 -10 -5
0 -7 5 -4 10 3 6 8 10 11 10 2 0 4 -4 4 -10z m20 -52 c0 -5 -7 -8 -15 -8 -8 0
-15 -7 -15 -16 0 -10 -6 -14 -14 -11 -8 3 -17 3 -19 -1 -2 -4 -2 -1 0 6 1 8 3
19 3 25 0 17 43 35 52 22 4 -5 8 -13 8 -17z m-1013 -34 c-3 -3 -12 -4 -19 -1
-8 3 -5 6 6 6 11 1 17 -2 13 -5z m1213 -24 c0 -5 -2 -10 -4 -10 -3 0 -8 5 -11
10 -3 6 -1 10 4 10 6 0 11 -4 11 -10z m-413 -52 c-3 -8 -6 -5 -6 6 -1 11 2 17
5 13 3 -3 4 -12 1 -19z m464 -28 c2 -17 5 -24 22 -64 18 -41 16 -73 -4 -61 -6
4 -9 16 -6 26 3 11 2 17 -3 14 -4 -3 -10 10 -12 28 -3 17 -8 40 -13 50 -4 10
-3 17 4 17 6 0 12 -4 12 -10z"/>
<path d="M1795 1041 c-3 -5 -1 -12 5 -16 5 -3 10 1 10 9 0 18 -6 21 -15 7z"/>
<path d="M1745 990 c3 -5 8 -10 11 -10 2 0 4 5 4 10 0 6 -5 10 -11 10 -5 0 -7
-4 -4 -10z"/>
<path d="M1760 1207 c0 -18 5 -27 15 -27 13 0 14 4 4 23 -17 33 -19 33 -19 4z"/>
<path d="M1735 1210 c3 -5 8 -10 11 -10 2 0 4 5 4 10 0 6 -5 10 -11 10 -5 0
-7 -4 -4 -10z"/>
<path d="M1495 1040 c-3 -6 1 -13 10 -16 21 -9 26 -2 10 13 -9 8 -16 9 -20 3z"/>
<path d="M1526 995 c4 -8 8 -15 10 -15 2 0 4 7 4 15 0 8 -4 15 -10 15 -5 0 -7
-7 -4 -15z"/>
<path d="M1315 884 l-30 -14 40 6 40 6 -30 -19 c-16 -10 -43 -25 -59 -33 -27
-14 -28 -15 -8 -18 12 -2 20 -8 17 -13 -7 -11 44 8 62 23 7 6 10 14 7 19 -3 5
-2 9 3 8 20 -3 32 3 46 24 15 23 14 23 -22 24 -20 1 -49 -5 -66 -13z"/>
<path d="M1393 806 c0 -17 23 -15 40 4 10 12 9 12 -5 1 -12 -9 -18 -10 -18 -2
0 6 -4 11 -8 11 -5 0 -9 -6 -9 -14z"/>
<path d="M1165 803 c-16 -2 -37 -7 -45 -10 -8 -3 -19 -5 -23 -4 -22 5 -140
-75 -217 -146 -89 -82 -116 -99 -165 -107 -16 -2 -2 -3 32 -2 49 2 69 8 104
32 23 16 57 39 75 51 36 24 97 107 87 117 -4 3 -1 6 6 6 8 0 11 -7 7 -15 -3
-10 1 -15 12 -15 22 0 142 60 142 71 0 5 12 9 26 9 14 0 23 4 19 10 -3 6 -12
9 -18 9 -7 -1 -25 -4 -42 -6z"/>
<path d="M1241 763 c-16 -3 -20 -7 -12 -12 16 -10 62 -1 55 10 -3 5 -8 8 -12
8 -4 -1 -18 -4 -31 -6z"/>
<path d="M2006 745 c4 -8 10 -12 15 -9 14 8 10 24 -6 24 -9 0 -12 -6 -9 -15z"/>
<path d="M2037 741 c-4 -17 -3 -21 5 -13 5 5 8 16 6 23 -3 8 -7 3 -11 -10z"/>
<path d="M1744 704 l-29 -25 26 6 c15 4 30 2 33 -4 4 -7 1 -8 -8 -5 -9 3 -16
1 -16 -4 0 -19 17 -22 30 -7 7 8 9 15 5 15 -4 0 -2 6 4 14 8 10 8 16 -2 25
-11 8 -21 5 -43 -15z m41 6 c3 -5 -1 -10 -10 -10 -9 0 -13 5 -10 10 3 6 8 10
10 10 2 0 7 -4 10 -10z"/>
<path d="M1830 709 c0 -5 5 -7 10 -4 6 3 10 8 10 11 0 2 -4 4 -10 4 -5 0 -10
-5 -10 -11z"/>
<path d="M2064 708 c3 -9 0 -19 -7 -22 -11 -4 17 -10 36 -7 4 0 7 -4 7 -10 0
-6 -7 -8 -16 -5 -8 3 -13 2 -9 -3 3 -5 -1 -12 -7 -14 -10 -4 -9 -8 2 -16 20
-14 80 -14 80 0 0 5 5 7 12 3 7 -4 8 -3 4 5 -5 8 -12 9 -19 2 -8 -6 -16 -4
-25 5 -11 12 -10 14 4 14 15 0 14 3 -5 21 -12 12 -25 18 -28 15 -3 -3 -12 2
-20 12 -13 15 -14 15 -9 0z m36 -62 c0 -3 -4 -8 -10 -11 -5 -3 -10 -1 -10 4 0
6 5 11 10 11 6 0 10 -2 10 -4z"/>
<path d="M1690 640 c0 -11 2 -20 4 -20 2 0 6 9 9 20 3 11 1 20 -4 20 -5 0 -9
-9 -9 -20z"/>
<path d="M1830 649 c0 -5 5 -7 10 -4 6 3 10 8 10 11 0 2 -4 4 -10 4 -5 0 -10
-5 -10 -11z"/>
<path d="M935 600 c-3 -5 -1 -10 4 -10 6 0 11 5 11 10 0 6 -2 10 -4 10 -3 0
-8 -4 -11 -10z"/>
<path d="M1795 580 c-19 -8 -19 -9 3 -9 12 -1 22 4 22 9 0 6 -1 10 -2 9 -2 0
-12 -4 -23 -9z"/>
<path d="M1660 525 c-6 -7 -18 -11 -26 -8 -18 7 -18 -14 0 -33 20 -19 37 -18
29 2 -5 13 -2 15 15 9 25 -7 29 9 8 30 -12 12 -16 12 -26 0z"/>
<path d="M1530 499 c0 -5 5 -7 10 -4 6 3 10 8 10 11 0 2 -4 4 -10 4 -5 0 -10
-5 -10 -11z"/>
<path d="M2350 416 c0 -2 7 -6 15 -10 8 -3 15 -1 15 4 0 6 -7 10 -15 10 -8 0
-15 -2 -15 -4z"/>
</g>
</svg>
